<svg xmlns="http://www.w3.org/2000/svg" xmlns:xlink="http://www.w3.org/1999/xlink" width="505" height="370" viewBox="0 0 505 370">
  <defs>
    <clipPath id="clip-path">
      <rect id="Rectángulo_405163" data-name="Rectángulo 405163" width="505" height="370" transform="translate(8159 992)" fill="#fff" stroke="#707070" stroke-width="1"/>
    </clipPath>
    <clipPath id="clip-path-2">
      <rect id="Rectángulo_405162" data-name="Rectángulo 405162" width="499.391" height="390.29" fill="none"/>
    </clipPath>
    <clipPath id="clip-path-4">
      <rect id="Rectángulo_405157" data-name="Rectángulo 405157" width="173.793" height="101.986" fill="none"/>
    </clipPath>
    <clipPath id="clip-path-6">
      <rect id="Rectángulo_405158" data-name="Rectángulo 405158" width="132.197" height="109.894" fill="none"/>
    </clipPath>
  </defs>
  <g id="Enmascarar_grupo_1098656" data-name="Enmascarar grupo 1098656" transform="translate(-8159 -992)" clip-path="url(#clip-path)">
    <g id="Grupo_1143753" data-name="Grupo 1143753" transform="translate(8159 991.801)">
      <g id="Grupo_1143751" data-name="Grupo 1143751" clip-path="url(#clip-path-2)">
        <g id="Grupo_1143743" data-name="Grupo 1143743">
          <g id="Grupo_1143742" data-name="Grupo 1143742" clip-path="url(#clip-path-2)">
            <path id="Trazado_978641" data-name="Trazado 978641" d="M496.411,375.983c-1.024,3.768-2.169,7.5-3.382,11.2H38.971a137.185,137.185,0,0,1-13.589-31.1c-4.19-14.115-6.618-29.385-5.352-44.258,1.2-14.248,6.54-28.041,17.71-36.126,10.362-7.507,23.038-9.638,34.94-12.44,12.426-2.925,24.286-7.006,34.647-15.355,10.972-8.842,18.726-20.723,24.544-34.119,11.024-25.418,18.872-58.042,45.162-69.611,29.234-12.866,57.34,13.548,82.986,24.936,12.831,5.7,26.2,7.98,39.8,4.468,12.685-3.285,24.259-10.177,36.11-15.885,11.738-5.661,24.157-10.214,37.134-8.832,11.988,1.268,23.554,7.062,32.642,15.687A63.052,63.052,0,0,1,424.114,197.7c2.719,13.49,1.979,27.88,6.557,40.916a36.838,36.838,0,0,0,10.224,15.7c4.759,4.194,10.318,6.978,15.886,9.59,5.748,2.7,11.6,5.264,16.858,9.041a58.293,58.293,0,0,1,13.735,14.21c17.728,25.522,17.014,59.386,9.036,88.828" transform="translate(-2.4 -17.149)" fill="#ffe497"/>
          </g>
        </g>
        <g id="Grupo_1143745" data-name="Grupo 1143745" transform="translate(129.679 268.048)">
          <g id="Grupo_1143744" data-name="Grupo 1143744" clip-path="url(#clip-path-4)">
            <path id="Trazado_978642" data-name="Trazado 978642" d="M156.468,347.142a47.861,47.861,0,0,0-3.823,15.332q2.583,1.453,5.184,2.661a47.67,47.67,0,0,0,.772,11.155c-1.613,1.036-3.194,2.163-4.79,3.354a55.253,55.253,0,0,0,5.921,14.678c1.955-.245,3.9-.562,5.793-.948a46.128,46.128,0,0,0,7.192,8.581c-.727,1.809-1.371,3.667-1.916,5.522,1.04.825,2.016,1.733,3.1,2.487l3.288,2.23c1.1.744,2.314,1.309,3.466,1.957l1.757.935,1.826.774c1.456-1.351,2.822-2.725,4.125-4.128a48.623,48.623,0,0,0,10.841,2.7c.489,1.863,1.07,3.7,1.709,5.568a50.068,50.068,0,0,0,15.8-1.093,56.7,56.7,0,0,0,.9-5.762,46.7,46.7,0,0,0,10.381-4.213c1.488,1.242,3.057,2.435,4.671,3.556l3.3-2.2c1.106-.719,2.078-1.625,3.124-2.442.508-.426,1.025-.837,1.52-1.266l1.427-1.4,1.4-1.406.7-.7.646-.765c-.85-1.8-1.719-3.526-2.67-5.2a46.96,46.96,0,0,0,5.931-9.484q2.865.154,5.826.084a47.939,47.939,0,0,0,3.826-15.345q-2.583-1.453-5.184-2.662l-.013,0a46.263,46.263,0,0,0-.775-11.143c1.612-1.035,3.206-2.158,4.8-3.35l-.212-.979-.29-.943-.59-1.9-.594-1.89c-.231-.624-.5-1.229-.743-1.844-.544-1.2-.974-2.469-1.612-3.623l-1.879-3.5c-1.952.232-3.9.549-5.807.944a46.4,46.4,0,0,0-7.179-8.578c.728-1.81,1.371-3.667,1.917-5.523a50.312,50.312,0,0,0-13.436-8.381c-1.456,1.351-2.819,2.712-4.122,4.115a48.588,48.588,0,0,0-10.841-2.7c-.493-1.851-1.056-3.692-1.709-5.569l-1.987-.177-1.975-.009c-1.324.044-2.662-.027-3.979.1l-3.949.425c-1.315.17-2.6.5-3.907.754a56.641,56.641,0,0,0-.9,5.761,46.782,46.782,0,0,0-10.381,4.213c-1.488-1.242-3.057-2.434-4.671-3.556a55.24,55.24,0,0,0-12.118,10.18c.847,1.815,1.729,3.542,2.668,5.213a47.05,47.05,0,0,0-5.932,9.484q-2.86-.174-5.826-.084m53.452,1.244a19.624,19.624,0,1,1-23.789,14.294,19.623,19.623,0,0,1,23.789-14.294" transform="translate(-148.282 -306.393)" fill="#b9c7d0"/>
            <path id="Trazado_978643" data-name="Trazado 978643" d="M215.9,337.753a33.357,33.357,0,1,1-40.435,24.3,33.394,33.394,0,0,1,40.435-24.3M200.3,400.3a31.108,31.108,0,1,0-22.659-37.71A31.144,31.144,0,0,0,200.3,400.3" transform="translate(-150.941 -309.087)" fill="#9bb0be"/>
            <path id="Trazado_978644" data-name="Trazado 978644" d="M309.955,345.657a15.141,15.141,0,0,0-1.682-2.769l3.987-3.057a20.484,20.484,0,0,0-9.42-6.852l-1.682,4.733a15.49,15.49,0,0,0-3.152-.754l.656-4.98a20.468,20.468,0,0,0-11.507,1.816l2.158,4.536a15.469,15.469,0,0,0-2.767,1.688l-3.058-3.986a20.6,20.6,0,0,0-6.852,9.42l4.734,1.681a15.191,15.191,0,0,0-.748,3.152l-4.98-.656a20.315,20.315,0,0,0,1.815,11.507l4.53-2.157a14.2,14.2,0,0,0,.777,1.435,15.069,15.069,0,0,0,.911,1.332l-3.987,3.057a20.711,20.711,0,0,0,9.42,6.853l1.682-4.734a15.43,15.43,0,0,0,3.153.754l-.658,4.974a20.305,20.305,0,0,0,11.507-1.816l-2.157-4.529a15.47,15.47,0,0,0,2.767-1.688l3.058,3.986a20.588,20.588,0,0,0,6.852-9.419l-4.734-1.682a16.333,16.333,0,0,0,.63-2.344c.047-.266.085-.537.124-.809l4.98.657A20.459,20.459,0,0,0,314.5,343.5Zm-2.632,5.176a11.42,11.42,0,0,1-9.525,13.085,11.4,11.4,0,0,1-5.6-.51,11.448,11.448,0,1,1,15.128-12.575" transform="translate(-163.25 -308.484)" fill="#9bb0be"/>
            <path id="Trazado_978645" data-name="Trazado 978645" d="M306.432,352.877a8.887,8.887,0,1,0-.054,3.11,9.02,9.02,0,0,0,.054-3.11" transform="translate(-164.865 -310.135)" fill="#9bb0be"/>
            <path id="Trazado_978646" data-name="Trazado 978646" d="M314.494,401.788a19.68,19.68,0,0,0-2.184-3.6l5.178-3.969a26.588,26.588,0,0,0-12.233-8.9l-2.183,6.147a20.082,20.082,0,0,0-4.094-.979l.853-6.467a26.587,26.587,0,0,0-14.944,2.357l2.8,5.891a20.138,20.138,0,0,0-3.593,2.192l-3.97-5.177a26.75,26.75,0,0,0-8.9,12.232l6.148,2.184a19.688,19.688,0,0,0-.97,4.092l-6.467-.852a26.385,26.385,0,0,0,2.357,14.944l5.883-2.8a18.724,18.724,0,0,0,1.009,1.863,20.15,20.15,0,0,0,1.183,1.731l-5.177,3.969a26.888,26.888,0,0,0,12.232,8.9l2.184-6.147a20.068,20.068,0,0,0,4.094.979l-.854,6.459a26.379,26.379,0,0,0,14.943-2.357l-2.8-5.883a20.075,20.075,0,0,0,3.593-2.192l3.97,5.177a26.742,26.742,0,0,0,8.9-12.233L315.3,417.17a21.178,21.178,0,0,0,.818-3.044c.061-.345.112-.7.162-1.05l6.467.853a26.577,26.577,0,0,0-2.358-14.944Zm-3.418,6.722a14.831,14.831,0,0,1-12.37,16.994,14.863,14.863,0,1,1,12.37-16.994" transform="translate(-162.548 -314.821)" fill="#b9c7d0"/>
            <path id="Trazado_978647" data-name="Trazado 978647" d="M309.919,411.165a11.543,11.543,0,1,0-.071,4.039,11.7,11.7,0,0,0,.071-4.039" transform="translate(-164.646 -316.964)" fill="#b9c7d0"/>
          </g>
        </g>
        <g id="Grupo_1143750" data-name="Grupo 1143750">
          <g id="Grupo_1143749" data-name="Grupo 1143749" clip-path="url(#clip-path-2)">
            <path id="Trazado_978648" data-name="Trazado 978648" d="M324.571,126.919c0,31.771-23.156,50.027-63.393,53.575l-19.67.588a141.385,141.385,0,0,1-27.055-3.03A108.032,108.032,0,0,1,195.4,188.265c-1.914.79-4.057,1.528-6.015.852a53.424,53.424,0,0,0,9.229-16.052c-20.162-8.65-31.253-24.157-31.253-46.146,0-35.591,29.04-54.225,78.6-54.225s78.611,18.634,78.611,54.225" transform="translate(-20.395 -8.859)" fill="#7cd1c9"/>
            <path id="Trazado_978649" data-name="Trazado 978649" d="M319.71,108.388l1.695.053c-1.546,7.692,11.6,13.734,11.6,13.734-21.9-.948-32.965-14.375-32.965-14.375C259.8,104.252,236.647,86,236.647,54.225,236.647,18.634,265.7,0,315.258,0s78.6,18.634,78.6,54.225c0,34.5-27.3,53.066-74.15,54.163" transform="translate(-28.839)" fill="#f73"/>
            <g id="Grupo_1143748" data-name="Grupo 1143748" transform="translate(93.376 18.325)" style="mix-blend-mode: multiply;isolation: isolate">
              <g id="Grupo_1143747" data-name="Grupo 1143747">
                <g id="Grupo_1143746" data-name="Grupo 1143746" clip-path="url(#clip-path-6)">
                  <path id="Trazado_978650" data-name="Trazado 978650" d="M106.334,73.388c0,27.494,26.6,40.7,60.476,41.994v.011c7.943,8.759-2.882,15.367-2.882,15.367,21.2-.911,36.083-18.182,36.083-18.182,22.738-5.3,38.521-18.014,38.521-39.191,0-29-29.591-52.521-66.094-52.521s-66.1,23.519-66.1,52.521" transform="translate(-106.334 -20.868)" fill="#ffbe55"/>
                </g>
              </g>
            </g>
            <path id="Trazado_978651" data-name="Trazado 978651" d="M49.287,160.326l-5.674-5.652-5.638,5.606-4.6-4.579,5.637-5.606L33.38,144.48l4.6-4.578,5.638,5.615,5.629-5.616,4.6,4.578L48.209,150.1l5.674,5.653Zm-5.674-7.176,5.674,5.652,3.066-3.053L46.678,150.1l5.629-5.616-3.066-3.054-5.629,5.616-5.638-5.617-3.065,3.054,5.637,5.617L34.911,155.7l3.065,3.053Z" transform="translate(-4.068 -17.049)" fill="#38b2ac"/>
            <path id="Trazado_978652" data-name="Trazado 978652" d="M15.375,242.762,0,230.24l12.57-15.316,15.375,12.52ZM1.522,230.088l13.7,11.157,11.2-13.647-13.7-11.157Zm13.322,7.41-9.559-7.786,7.816-9.523,9.559,7.786Zm-8.038-7.938,7.886,6.421,6.446-7.854L13.253,221.7Z" transform="translate(0 -26.192)" fill="#ff5331"/>
            <path id="Trazado_978653" data-name="Trazado 978653" d="M24.318,270.625a10.645,10.645,0,1,1-10.682,10.64,10.675,10.675,0,0,1,10.682-10.64m6.7,10.64a6.694,6.694,0,1,0-6.7,6.673,6.684,6.684,0,0,0,6.7-6.673" transform="translate(-1.662 -32.98)" fill="#cbf4f4"/>
            <path id="Trazado_978654" data-name="Trazado 978654" d="M64.982,225.712a6.255,6.255,0,1,1-6.276,6.251,6.272,6.272,0,0,1,6.276-6.251m3.936,6.251a3.933,3.933,0,1,0-3.936,3.92,3.928,3.928,0,0,0,3.936-3.92" transform="translate(-7.154 -27.507)" fill="#ffc764"/>
            <path id="Trazado_978655" data-name="Trazado 978655" d="M86.693,159.793l-7.2-4.951,4.969-7.17,7.2,4.95Z" transform="translate(-9.688 -17.996)" fill="#f73"/>
            <path id="Trazado_978656" data-name="Trazado 978656" d="M243.432,276.948a5.335,5.335,0,1,1-5.335-5.335,5.335,5.335,0,0,1,5.335,5.335" transform="translate(-28.366 -33.1)" fill="#cbf4f4"/>
            <path id="Trazado_978657" data-name="Trazado 978657" d="M511.449,186.574l5.674-5.674-5.629-5.639,4.6-4.6,5.629,5.639,5.638-5.638,4.6,4.6-5.638,5.638,5.638,5.628-4.6,4.6-5.638-5.629-5.674,5.674Zm15.907,3.02,3.065-3.066-5.637-5.628,5.637-5.639-3.065-3.066-5.638,5.639L516.09,172.2l-3.066,3.066,5.628,5.639-5.674,5.674,3.066,3.066,5.674-5.674Z" transform="translate(-62.328 -20.798)" fill="#ffbe55"/>
            <path id="Trazado_978658" data-name="Trazado 978658" d="M525.391,230.391a10.687,10.687,0,1,1-10.682-10.682,10.7,10.7,0,0,1,10.682,10.682m-10.682,6.7a6.694,6.694,0,1,0-6.7-6.7,6.7,6.7,0,0,0,6.7,6.7" transform="translate(-61.422 -26.775)" fill="#cbf4f4"/>
            <path id="Trazado_978659" data-name="Trazado 978659" d="M501.787,180.731a6.279,6.279,0,1,1-6.276-6.276,6.288,6.288,0,0,1,6.276,6.276m-6.276,3.936a3.933,3.933,0,1,0-3.936-3.936,3.938,3.938,0,0,0,3.936,3.936" transform="translate(-59.62 -21.26)" fill="#ff5331"/>
            <rect id="Rectángulo_405159" data-name="Rectángulo 405159" width="8.748" height="8.747" transform="matrix(0.823, -0.568, 0.568, 0.823, 436.54, 134.622)" fill="#ffbe55"/>
            <path id="Trazado_978660" data-name="Trazado 978660" d="M274.358,275.083a2.812,2.812,0,1,1-2.812-2.812,2.812,2.812,0,0,1,2.812,2.812" transform="translate(-32.749 -33.18)" fill="#ff5331"/>
            <path id="Trazado_978661" data-name="Trazado 978661" d="M514.868,256.6a3.971,3.971,0,1,1-3.971-3.971,3.971,3.971,0,0,1,3.971,3.971" transform="translate(-61.777 -30.787)" fill="#ff5331"/>
            <path id="Trazado_978662" data-name="Trazado 978662" d="M52.159,194.823a3.646,3.646,0,1,1-3.647-3.632,3.639,3.639,0,0,1,3.647,3.632" transform="translate(-5.468 -23.3)" fill="#ff5331"/>
            <path id="Trazado_978663" data-name="Trazado 978663" d="M52.017,312.331a3.481,3.481,0,1,1-3.481-3.468,3.474,3.474,0,0,1,3.481,3.468" transform="translate(-5.491 -37.64)" fill="#fffefd"/>
            <rect id="Rectángulo_405160" data-name="Rectángulo 405160" width="8.748" height="8.747" transform="matrix(0.823, -0.568, 0.568, 0.823, 218.008, 225.16)" fill="#ffbe55"/>
            <path id="Trazado_978664" data-name="Trazado 978664" d="M504.6,402.115l-15.375-12.521,12.57-15.316,15.375,12.52Zm-13.853-12.674,13.7,11.157,11.2-13.647-13.7-11.157Zm13.322,7.41-9.559-7.786,7.816-9.523,9.559,7.786Zm-8.038-7.938,7.886,6.421,6.446-7.854-7.886-6.421Z" transform="translate(-59.62 -45.612)" fill="#ff5331"/>
            <path id="Trazado_978665" data-name="Trazado 978665" d="M541.33,394.147a6.255,6.255,0,1,1-6.276,6.251,6.272,6.272,0,0,1,6.276-6.251m3.936,6.251a3.933,3.933,0,1,0-3.936,3.92,3.928,3.928,0,0,0,3.936-3.92" transform="translate(-65.205 -48.033)" fill="#ffc764"/>
            <path id="Trazado_978666" data-name="Trazado 978666" d="M552.5,370.367a3.646,3.646,0,1,1-3.647-3.632,3.639,3.639,0,0,1,3.647,3.632" transform="translate(-66.442 -44.692)" fill="#ff5331"/>
            <path id="Trazado_978667" data-name="Trazado 978667" d="M394.742,214.125s-12.062,79.01-5.831,100.546c0,0,20.986-60.4,48.359-108.529Z" transform="translate(-47.177 -25.122)" fill="#e6efee"/>
            <path id="Trazado_978668" data-name="Trazado 978668" d="M425.625,334.1l4.232,31.613-43.573,24-21.8-22.164L347.76,384.664l-14.911-25.079,13.8-56.271c-3.179-19.214-3.126-38.8-3.4-58.317L279.59,237.77l-.22.114q-14.555-27.991-30.066-55.489l.009-.009c.184-.132.36-.263.544-.4l12.109-8.869c.693-.509,1.4-1.019,2.1-1.537q12.62,21.326,27.222,41.4h.01c3.52-.746,7.087-1.221,10.652-1.7q32.481-4.413,64.735-10.336c2.8-1.229,5.919-1.308,8.931-1.458,3.205-.167,6.419-.211,9.624-.105,11.152.378,22.1,2.784,31.885,8.29,8.826,4.97,16.421,11.811,23.639,18.854a156.573,156.573,0,0,1,13.093,11.021l-.025.026,1.4,2.389.721-.422Z" transform="translate(-30.382 -20.909)" fill="#38b2ac"/>
            <path id="Trazado_978669" data-name="Trazado 978669" d="M409.536,220.7l-.158.053a30.018,30.018,0,0,0-5.919-9.905q2.107-.527,4.162-1.256A36.413,36.413,0,0,0,418.9,203.3a29.572,29.572,0,0,0,9.115-14.129,11.41,11.41,0,0,0,6.612,4.47c.931,2.108,1.87,4.224,2.81,6.331.474,1.063.948,2.134,1.423,3.2q-8.4,6.573-17.422,12.329c-3.618,2.292-7.385,4.531-11.574,5.409-.105-.07-.22-.141-.325-.211" transform="translate(-49.168 -23.054)" fill="#e2882d"/>
            <path id="Trazado_978670" data-name="Trazado 978670" d="M358.286,321.226c2.889,4.847,3.908,10.766,7.174,15.411a8.166,8.166,0,0,0,2.617,2.555,10.365,10.365,0,0,0,5.365.8,95.978,95.978,0,0,0,4.118,19.038,49.936,49.936,0,0,0-10.415,5.137c-2.327,1.5-4.961,3.284-7.631,2.547a8.434,8.434,0,0,1-2.669-1.458,74.3,74.3,0,0,1-6.595-5.4c-.325-.281-.65-.588-.966-.887a16.009,16.009,0,0,1-3.7-4.619,9.278,9.278,0,0,1,2.819-11.091c2.072-1.51,4.672-2.064,7.016-3.082a2.185,2.185,0,0,0,.992-.676,2.366,2.366,0,0,0,.141-1.756q-1.449-8.114-2.178-16.333c-.105-1.2.22-2.88,1.423-2.828a2.049,2.049,0,0,1,1.4,1,16.529,16.529,0,0,1,1.08,1.642" transform="translate(-42.018 -38.824)" fill="#f7b05c"/>
            <path id="Trazado_978671" data-name="Trazado 978671" d="M437.556,315.672q-.238-21.563.3-43.116c.22-8.843.754-18.327,6.172-25.308a15.245,15.245,0,0,1,5.919-4.795A15.873,15.873,0,0,1,460,242.085a47.161,47.161,0,0,1,9.414,3.987l.026-.026c.7.65,1.4,1.317,2.089,1.993a16.06,16.06,0,0,1,3.96,5.146,16.262,16.262,0,0,1,.808,6.674c-.57,24.324-5.48,48.324-10.792,72.077a9.215,9.215,0,0,1-1.721,4.224c-1.229,1.4-3.161,1.914-4.97,2.353q-8.786,2.134-17.607,4.1-28.965,6.441-58.308,10.968-.738-1.963-1.387-3.952a96.039,96.039,0,0,1-4.118-19.038c-.069-.553-.123-1.115-.176-1.668a575.994,575.994,0,0,0,60.24-13.251Z" transform="translate(-45.97 -29.424)" fill="#248e86"/>
            <path id="Trazado_978672" data-name="Trazado 978672" d="M265.528,138.215a3.637,3.637,0,0,1,.123,2.59q-2.569,12.974-5.146,25.949l.018.026q-6.059,4.439-12.109,8.869a20.5,20.5,0,0,1-3.17-12.724,19.669,19.669,0,0,0,.193-4.865,12.672,12.672,0,0,0-1.361-3.565q-1.949-3.807-4.145-7.49c-1.08-1.8-2.23-3.662-2.415-5.761a16.217,16.217,0,0,1,.65-4.786c.676-3.117.975-6.323,2-9.352s2.933-5.936,5.857-7.209a2.2,2.2,0,0,1,1.265-.237c.764.149,1.2.922,1.537,1.625,3.943,8.351,6.147,17.4,8.325,26.37q3.161-3.741,6.34-7.473a9.61,9.61,0,0,1,2.037-1.967" transform="translate(-28.942 -14.58)" fill="#e2882d"/>
            <path id="Trazado_978673" data-name="Trazado 978673" d="M437.729,205.693l-.193-.123c-.132-.3-.272-.606-.4-.9-.474-1.063-.948-2.134-1.423-3.2l.053-.026a13.628,13.628,0,0,1,5.471,2.52,11.136,11.136,0,0,1,3.073,4.5,26.3,26.3,0,0,1,1.326,5.33,4.217,4.217,0,0,0,.773,2.143,4.351,4.351,0,0,0,1.282.887,18.9,18.9,0,0,1,6.173,4.97,10.7,10.7,0,0,1,2.318,6.946,106.816,106.816,0,0,0-40.034,20.206l7.122,6.015c.615.518,1.291,1.185,1.168,1.985a2.444,2.444,0,0,1-.817,1.238c-15.429,15.385-24.992,35.529-34.159,55.314l-.149-.07c4.909-24.465,11.916-48.815,24.087-70.567q.777-1.4,1.581-2.766c1.159-1.985,2.371-3.943,3.609-5.883,6.138-9.659,13.04-18.836,19.143-28.522" transform="translate(-47.443 -24.549)" fill="#7cd1c9"/>
            <path id="Trazado_978674" data-name="Trazado 978674" d="M397.835,414.179c12.223-8.254,26.87-12.663,38.655-21.488l.211.281q.765,12.158,1.362,24.324H341.74q1.961-14.792,3.293-29.672l.1-.061q4.781,7.811,9.572,15.64a17.229,17.229,0,0,0,4.435,5.418q8.391-7.284,16.606-14.753a229.084,229.084,0,0,0,22.094,20.311" transform="translate(-41.646 -47.231)" fill="#248e86"/>
            <path id="Trazado_978675" data-name="Trazado 978675" d="M430.04,185.867a11.41,11.41,0,0,1-6.612-4.47,30.168,30.168,0,0,0-.992-20.583c-.931-2.125-2.7-4.452-4.988-4.057a4.753,4.753,0,0,0-3.056,2.634c-1.835,3.3-2.134,7.306-4.039,10.582a3.283,3.283,0,0,1-1.7,1.633c-1.827.571-3.232-1.616-3.846-3.425a105.186,105.186,0,0,1-3.53-12.865c-.6-2.915-1.37-6.27-4.031-7.613a9.056,9.056,0,0,0-4.312-.632c-4.092.1-8.193.492-12.268.053-.65-.07-1.3-.167-1.949-.281a17.053,17.053,0,0,1-9.133-4.408,13.128,13.128,0,0,1-3.258-12.654,5.116,5.116,0,0,1,2.573-3.486c1.625-.685,3.451.088,5.067.782,5.2,2.239,10.871,3.785,16.483,3.065a61.064,61.064,0,0,0,9.01-2.3,70.279,70.279,0,0,1,10.766-2.2c3.161-.4,6.5-.544,9.4.773s5.163,4.514,4.435,7.613c2.67-1.862,6.5-1.379,9.133.527a14.871,14.871,0,0,1,5.155,8.079,26.173,26.173,0,0,1,.553,12.2c-1.282,6.533-5.032,12.364-6.533,18.862a28.531,28.531,0,0,0-.088,12.487,10.589,10.589,0,0,1-2.23-.316" transform="translate(-44.584 -15.278)" fill="#272742"/>
            <path id="Trazado_978676" data-name="Trazado 978676" d="M417.642,228.419c-.149-.176-.307-.342-.465-.509a32.916,32.916,0,0,0-6.428-5.058c4.189-.878,7.956-3.117,11.574-5.409q9-5.743,17.422-12.329c.132.3.272.606.4.9l.193.123c-6.1,9.686-13.005,18.862-19.143,28.522a16.258,16.258,0,0,0-3.556-6.244" transform="translate(-50.056 -24.996)" fill="#fff"/>
            <path id="Trazado_978677" data-name="Trazado 978677" d="M409.409,225.126l.158-.053c.105.07.22.141.325.211a32.916,32.916,0,0,1,6.428,5.058c.158.167.316.334.465.509-.132,2.573-2.582,7.78-2.582,7.78-.518.061.518-.026,0,0a33.15,33.15,0,0,1-10.265-.931h0c-.044-2.687-.421-5.506-.088-8.175.158-.211.316-.413.483-.615a11.918,11.918,0,0,1,5.076-3.785" transform="translate(-49.199 -27.429)" fill="#f73"/>
            <path id="Trazado_978678" data-name="Trazado 978678" d="M412.308,240.384a46.288,46.288,0,0,1,.948,7.113c-12.171,21.751-19.178,46.1-24.087,70.567l.149.07c-.1.2-.184.4-.281.6-.105-.448-.211-.9-.307-1.344-1.344-17.782-.123-35.573,1.642-53.364a163.4,163.4,0,0,1,11.67-24.57,33.149,33.149,0,0,0,10.265.931" transform="translate(-47.303 -29.181)" fill="#ff5331"/>
            <path id="Trazado_978679" data-name="Trazado 978679" d="M402.871,228.158a33.685,33.685,0,0,0-2.7,4.338,66.349,66.349,0,0,1-4.5-15.85c.036-.527.079-1.054.114-1.581a46.2,46.2,0,0,0,6.727-1.212,30.015,30.015,0,0,1,5.918,9.905,11.918,11.918,0,0,0-5.076,3.785c-.167.2-.325.4-.482.615" transform="translate(-48.218 -26.061)" fill="#fff"/>
            <path id="Trazado_978680" data-name="Trazado 978680" d="M393.6,215.517c-.834,11.486-2.134,22.972-3.363,34.458l-2.555-.088a7.447,7.447,0,0,0-.931-3.706q-3.069-6.849-6.147-13.708a17.476,17.476,0,0,1-1.888-6.182,17.3,17.3,0,0,1,.992-5.594q2.345-8.048,4.7-16.1a.079.079,0,0,0,.044-.009q1.37,3.635,2.784,7.271a3.553,3.553,0,0,0,1.484,2.081,3.428,3.428,0,0,0,1.607.22c1.133-.035,2.257-.105,3.39-.228-.035.527-.079,1.054-.114,1.581" transform="translate(-46.152 -24.933)" fill="#7cd1c9"/>
            <path id="Trazado_978681" data-name="Trazado 978681" d="M389.638,266.061c-1.766,17.791-2.987,35.582-1.643,53.364-2.941-13.084-3.952-26.537-4.943-39.929q-.41-5.624-.835-11.24a9.8,9.8,0,0,1,.4-4.6c1.247-2.889,5.155-4.347,5.48-7.482l2.554.088q-.527,4.9-1.018,9.8" transform="translate(-46.569 -31.219)" fill="#7cd1c9"/>
            <path id="Trazado_978682" data-name="Trazado 978682" d="M424.1,184.378a29.573,29.573,0,0,1-9.115,14.129,36.413,36.413,0,0,1-11.275,6.287q-2.055.724-4.162,1.256a46.17,46.17,0,0,1-6.727,1.212c-1.133.123-2.257.193-3.39.228a3.428,3.428,0,0,1-1.607-.22,3.553,3.553,0,0,1-1.484-2.081q-1.409-3.635-2.784-7.271l-.026-.053q-2.108-5.559-4.162-11.144l.035-.2a10.1,10.1,0,0,1-7.9-6.867,1.718,1.718,0,0,1-.088-.957,1.861,1.861,0,0,1,.9-.948q2.108-1.33,4.2-2.661a3.677,3.677,0,0,0,1.1-.913,3.828,3.828,0,0,0,.4-2.38,97.481,97.481,0,0,1,1.379-21.971c.65.114,1.3.211,1.949.281,4.075.439,8.175.044,12.268-.053a9.057,9.057,0,0,1,4.312.632c2.661,1.344,3.434,4.7,4.031,7.613a105.18,105.18,0,0,0,3.53,12.865c.615,1.809,2.02,4,3.846,3.425a3.283,3.283,0,0,0,1.7-1.633c1.906-3.275,2.2-7.28,4.039-10.582a4.752,4.752,0,0,1,3.056-2.634c2.283-.4,4.057,1.932,4.988,4.057a30.168,30.168,0,0,1,.992,20.583" transform="translate(-45.258 -18.258)" fill="#f7b05c"/>
            <path id="Trazado_978683" data-name="Trazado 978683" d="M392.788,170.369a5.056,5.056,0,0,0-2.362-3.741,2.313,2.313,0,0,0-2.84.382,2.526,2.526,0,0,0-.487.791.811.811,0,0,0-.225.4,8.056,8.056,0,0,0,.5,5.264,3.574,3.574,0,0,0,1.533,1.748,2.5,2.5,0,0,0,2.443-.12c1.627-1.01,1.729-3.016,1.435-4.72" transform="translate(-47.119 -20.268)" fill="#272742"/>
            <path id="Trazado_978684" data-name="Trazado 978684" d="M396.625,193.557a25.6,25.6,0,0,1-1.194,6.077c-.9,2.7-2.661,7.016-6.323,5.673a7.388,7.388,0,0,1-3.556-3.53,49.354,49.354,0,0,1-2.52-4.944.954.954,0,0,1,.738-1.317l.053-.026q5.848-1.159,11.583-2.757a1.065,1.065,0,0,1,.4-.018.756.756,0,0,1,.817.843" transform="translate(-46.668 -23.484)" fill="#fff"/>
            <path id="Trazado_978685" data-name="Trazado 978685" d="M394.389,160.924a13.285,13.285,0,0,0-10.341-.421,1.356,1.356,0,0,0-.932,1.613,1.326,1.326,0,0,0,1.613.931,10.771,10.771,0,0,1,8.342.159,1.352,1.352,0,0,0,1.8-.482,1.327,1.327,0,0,0-.482-1.8" transform="translate(-46.683 -19.456)" fill="#272742"/>
            <path id="Trazado_978686" data-name="Trazado 978686" d="M114.7,238.582a17.236,17.236,0,0,1-4.47,7.6,60.629,60.629,0,0,1-6.709,5.453c-2.169,1.7-4.312,3.679-5.3,6.331-1.063,2.889-.7,6.033-.4,9.018.3,2.951.632,6.033-.316,8.913a12.9,12.9,0,0,1-5.269,6.472,23.568,23.568,0,0,1-8.913,3.521,20.766,20.766,0,0,1-9.238-.2,10.645,10.645,0,0,1-8.123-12.109,11.541,11.541,0,0,1,3.776-6.656c1.914-1.827,4.2-3.4,5.646-5.664,1.844-2.9,1.458-6.314.676-9.484a12.721,12.721,0,0,1-.562-5,5.925,5.925,0,0,1,1.958-3.469c2.239-2.011,5.4-2.7,8.263-3.284,3.284-.659,6.647-1.08,9.791-2.3A12.86,12.86,0,0,0,102.4,232.2c1.546-2.819,1.721-6.156,1.7-9.308,0-.009.009-.018.009-.026v-1.282a.44.44,0,0,1,.439-.439,5.7,5.7,0,0,1,3.4,2.072,29.234,29.234,0,0,1,5.664,6.972,11.729,11.729,0,0,1,1.089,8.395" transform="translate(-8.026 -26.949)" fill="#272742"/>
            <path id="Trazado_978687" data-name="Trazado 978687" d="M100.427,217.779a16.064,16.064,0,0,1-3.09-8.582c-.292-5.638,2.376-10.942,3.877-16.385,1.4-5.062,1.857-10.5,4.5-15.038,3.147-5.394,9-8.728,15.03-10.334,8.46-2.255,17.853-1.42,25.4,3.025a21.152,21.152,0,0,1,6.9,6.222,22.608,22.608,0,0,1,3.245,8.362,35.6,35.6,0,0,1-.251,14.779l-.22-.008c0-.884.073-1.776.113-2.644a32.01,32.01,0,0,0-1.184-10.188,20.8,20.8,0,0,0-3.634-7.454c-2.393-2.969-5.783-4.94-9.174-6.708a40.861,40.861,0,0,1-21.933,30.142,11.717,11.717,0,0,0-3.059-2.417,4.134,4.134,0,0,0-3.982.033,4.081,4.081,0,0,0-1.6,2.458,7.577,7.577,0,0,0,1.1,5.7,10.362,10.362,0,0,0,7.382,4.7,52.634,52.634,0,0,1-1.063,9.888,16.228,16.228,0,0,1-14.049-1.468,15.813,15.813,0,0,1-4.323-4.08" transform="translate(-11.859 -20.258)" fill="#272742"/>
            <path id="Trazado_978688" data-name="Trazado 978688" d="M115.113,341.933c.457-1.1.931-2.2,1.4-3.293-4.909-9.835-9.774-19.7-13.752-29.936-2.977-7.684-5.462-15.631-6.217-23.833a64.292,64.292,0,0,1-.105-10.072,103.961,103.961,0,0,1,4.285-22.436q6.362,2.292,12.715,4.575c18.31,4.88,23.756,11.984,36.355,26.651,12.092,15.763,18.968,35.011,22.568,54.576l.281-.053c.132.659.246,1.308.369,1.967q4.926,26.95,8.983,54.049c-.255.088-.509.158-.755.228-14.7,4.426-30.612,3.7-46.005,2.441-11.8-.948-24.07-2.345-34.361-7.973-.922-.5-1.818-1.036-2.7-1.616l.1-.158q7.469-22.893,16.851-45.119" transform="translate(-11.734 -30.754)" fill="#38b2ac"/>
            <path id="Trazado_978689" data-name="Trazado 978689" d="M119.58,231.988c.307-1.115.571-2.248.808-3.381a56.963,56.963,0,0,0,1.15-10.7,10.293,10.293,0,0,0,1.379.1,54.808,54.808,0,0,0,20.039,18.09c.211.114.43.22.65.316.149,3.952.29,7.921.43,11.872-2.854-.1-5.84-.149-9.027-.141-2.1.009-4.224.018-6.331.167a111.712,111.712,0,0,0-10.871-10.9,55.777,55.777,0,0,0,1.774-5.418" transform="translate(-14.357 -26.555)" fill="#e2882d"/>
            <path id="Trazado_978690" data-name="Trazado 978690" d="M250.464,173.183a23.144,23.144,0,0,1,.325,12.751,118.043,118.043,0,0,0-12.592-3.548c-1.633-2.722-4.189-4.786-6.533-6.937-2.468-2.257-4.865-4.882-5.55-8.149a1.948,1.948,0,0,1,.422-2.011,1.907,1.907,0,0,1,1.6-.132c2.915.746,5.111,3.1,7.122,5.348-.465-8.1-4.558-15.842-3.916-23.92a3.813,3.813,0,0,1,1.326-3.021,3.5,3.5,0,0,1,3.179.07,23.111,23.111,0,0,1,4.241,2.485c1.756,1.212,3.592,2.5,4.522,4.417a12.817,12.817,0,0,1,.931,4.5,42.773,42.773,0,0,0,1.484,9.317c.931,3.021,2.494,5.813,3.442,8.825" transform="translate(-27.545 -17.452)" fill="#f7b05c"/>
            <path id="Trazado_978691" data-name="Trazado 978691" d="M115.034,249.052a15.94,15.94,0,0,1,3.785-2.441,25.688,25.688,0,0,1,8.834-1.993c2.108-.149,4.233-.158,6.331-.167,3.188-.009,6.173.044,9.027.141,16.851.553,28.864,2.432,47.56.342,9.958-18.968,24.5-39.577,32.711-57.272v-.009c.237.044.465.1.7.149a118.043,118.043,0,0,1,12.592,3.548c.378.123.755.255,1.142.386-7.245,24.386-31.613,75.792-32.228,76.45a53.039,53.039,0,0,1-6.595,1.221c-8.184,1.291-22.656,3.319-35.766,4.935-4.127.509-8.123.975-11.741,1.361-5.848.641-10.713,1.071-13.585,1.15-5.559.149-11.249.114-16.491-1.721s-10.055-5.8-11.495-11.161c-1.449-5.4.966-11.249,5.216-14.919" transform="translate(-13.332 -22.868)" fill="#248e86"/>
            <path id="Trazado_978692" data-name="Trazado 978692" d="M181.539,413.3c.255,2.151.518,4.312.773,6.463H98.766a111.508,111.508,0,0,0,2.406-12c10.292,5.629,22.559,7.025,34.361,7.973,15.394,1.256,31.305,1.985,46.005-2.441" transform="translate(-12.036 -49.692)" fill="#248e86"/>
            <path id="Trazado_978693" data-name="Trazado 978693" d="M180.065,342.258l-.281.053c-3.6-19.565-10.476-38.814-22.568-54.576,3.618-.386,7.613-.852,11.741-1.361l.044.351c3.1,5.427,4.751,11.547,5.98,17.677,1.414,7.069,2.3,14.235,3.179,21.383q1.146,9.22,2.274,18.441c-.123-.659-.237-1.308-.369-1.967" transform="translate(-19.159 -34.899)" fill="#7cd1c9"/>
            <path id="Trazado_978694" data-name="Trazado 978694" d="M115.609,239.357a111.713,111.713,0,0,1,10.871,10.9,25.687,25.687,0,0,0-8.834,1.993,15.94,15.94,0,0,0-3.785,2.441q-6.362-2.279-12.715-4.575c-.2-.07-.413-.149-.615-.22a1.2,1.2,0,0,1-.659-.43,1.15,1.15,0,0,1-.079-.711,16.685,16.685,0,0,1,17.589-14.814,55.777,55.777,0,0,1-1.774,5.418" transform="translate(-12.159 -28.506)" fill="#7cd1c9"/>
            <path id="Trazado_978695" data-name="Trazado 978695" d="M116.152,341.753c-.465,1.1-.94,2.2-1.4,3.293A136.249,136.249,0,0,1,98.291,334.43a13.172,13.172,0,0,1-3.047-2.872c-1.317-1.888-1.6-4.294-1.739-6.595-.957-15.6,2.915-31.2,2.169-46.778a4.058,4.058,0,0,0,.4-.272,64.292,64.292,0,0,0,.105,10.072c.755,8.2,3.24,16.149,6.217,23.833,3.978,10.239,8.843,20.1,13.752,29.936" transform="translate(-11.376 -33.868)" fill="#248e86"/>
            <path id="Trazado_978696" data-name="Trazado 978696" d="M121.944,203.883a40.859,40.859,0,0,0,21.933-30.142c3.39,1.769,6.781,3.739,9.174,6.708a20.8,20.8,0,0,1,3.634,7.454,32,32,0,0,1,1.185,10.188c-.04.868-.113,1.76-.113,2.644a7.566,7.566,0,0,0,1.03,4.461,22.832,22.832,0,0,1,1.363,1.841c1.078,2-.025,4.445-1.193,6.4a94.988,94.988,0,0,1-13.035,17.132,3.871,3.871,0,0,1-1.671,1.2,3.091,3.091,0,0,1-2.077-.324c-.2-.09-.406-.187-.6-.292a50.631,50.631,0,0,1-18.51-16.709,9.47,9.47,0,0,1-1.274-.09,10.359,10.359,0,0,1-7.381-4.7,7.574,7.574,0,0,1-1.1-5.7,4.081,4.081,0,0,1,1.6-2.458,4.136,4.136,0,0,1,3.983-.033,11.713,11.713,0,0,1,3.058,2.417" transform="translate(-13.787 -21.173)" fill="#f7b05c"/>
            <path id="Trazado_978697" data-name="Trazado 978697" d="M156.951,221.173c-.641,3.082-2.143,6.718-5.752,7.06a4.258,4.258,0,0,1-3.837-1.888,10.585,10.585,0,0,1-1.5-5.076c-.044-.369.307-.492.58-.386,3.328-.132,6.665-.255,9.993-.386a.381.381,0,0,1,.4.281.434.434,0,0,1,.114.4" transform="translate(-17.775 -26.871)" fill="#fff"/>
            <path id="Trazado_978698" data-name="Trazado 978698" d="M158.076,211.073l-3.343-5.33c-.3-.479-1.063-.045-.763.435l2.815,4.489c.234.374.471.747.7,1.122.134.216.191.246.025.442a3.3,3.3,0,0,1-.482.39,20.788,20.788,0,0,1-2.079,1.421c-.485.292-.05,1.055.435.762a22.236,22.236,0,0,0,2.382-1.654c.317-.252.716-.515.771-.951a1.825,1.825,0,0,0-.464-1.126" transform="translate(-18.755 -25.048)" fill="#c9772d"/>
            <path id="Trazado_978699" data-name="Trazado 978699" d="M144.4,203.509a2.058,2.058,0,0,1-1.932-.272,2.9,2.9,0,0,1-1.124-1.589,7.445,7.445,0,0,1,.009-3.03,1.971,1.971,0,0,1,.615-1.238,2.13,2.13,0,0,1,1.853-.422,3.118,3.118,0,0,1,2.055,3.012c.079,1.265-.123,3-1.475,3.539" transform="translate(-17.207 -23.995)" fill="#272742"/>
            <path id="Trazado_978700" data-name="Trazado 978700" d="M160.691,203.509a2.058,2.058,0,0,1-1.932-.272,2.9,2.9,0,0,1-1.124-1.589,7.445,7.445,0,0,1,.009-3.03,1.971,1.971,0,0,1,.615-1.238,2.13,2.13,0,0,1,1.853-.422,3.118,3.118,0,0,1,2.055,3.012c.079,1.265-.123,3-1.475,3.539" transform="translate(-19.191 -23.995)" fill="#272742"/>
            <path id="Trazado_978701" data-name="Trazado 978701" d="M144.144,192.921a6.443,6.443,0,0,0-6.355,2.96.886.886,0,0,0,.321,1.2.9.9,0,0,0,1.2-.321c.069-.112.141-.22.216-.328l.023-.032c.032-.041.066-.082.1-.122a5.35,5.35,0,0,1,.493-.5c.049-.043.1-.086.148-.128l.091-.075.069-.051c.054-.039.108-.076.162-.112a5.642,5.642,0,0,1,.65-.368c.049-.024.337-.145.189-.088.11-.043.22-.083.333-.119a5.567,5.567,0,0,1,.724-.181l.1-.016.109-.012c.117-.011.234-.019.352-.023s.262,0,.393,0l.156.011c.018,0,.272.031.087.006a.9.9,0,0,0,1.071-.629.887.887,0,0,0-.629-1.071" transform="translate(-16.778 -23.503)" fill="#272742"/>
            <path id="Trazado_978702" data-name="Trazado 978702" d="M163.793,194.6a5.908,5.908,0,0,0-2.91-1.735,11.125,11.125,0,0,0-3.239-.069.878.878,0,1,0,.01,1.756c.466-.04.933-.077,1.4-.086.249,0,.5,0,.746.014.114.007.228.017.342.031.027.006.186.032.208.036a6.55,6.55,0,0,1,.659.175c.1.039.113.042.037.009.055.024.111.049.166.076.1.047.192.1.285.155s.191.121.284.186l.044.033c.05.04.1.083.149.125.2.169.383.349.568.53a.878.878,0,1,0,1.251-1.233" transform="translate(-19.105 -23.485)" fill="#272742"/>
          </g>
        </g>
      </g>
    </g>
  </g>
</svg>
