<svg xmlns="http://www.w3.org/2000/svg" xmlns:xlink="http://www.w3.org/1999/xlink" width="108" height="108" viewBox="0 0 108 108">
  <defs>
    <filter id="Trazado_904820" x="0" y="0" width="108" height="108" filterUnits="userSpaceOnUse">
      <feOffset dy="3" input="SourceAlpha"/>
      <feGaussianBlur stdDeviation="3" result="blur"/>
      <feFlood flood-opacity="0.161"/>
      <feComposite operator="in" in2="blur"/>
      <feComposite in="SourceGraphic"/>
    </filter>
  </defs>
  <g id="Grupo_1143781" data-name="Grupo 1143781" transform="translate(-306 -5014)">
    <g transform="matrix(1, 0, 0, 1, 306, 5014)" filter="url(#Trazado_904820)">
      <g id="Trazado_904820-2" data-name="Trazado 904820" transform="translate(9 6)" fill="#ecf4fa">
        <path d="M 45 88.5 C 39.12687683105469 88.5 33.43022537231445 87.35007476806641 28.06830024719238 85.08217620849609 C 22.88852500915527 82.89131164550781 18.23629951477051 79.75458526611328 14.2408504486084 75.75914764404297 C 10.24541282653809 71.76370239257812 7.108687400817871 67.11147308349609 4.917825222015381 61.93170166015625 C 2.649924993515015 56.56977462768555 1.5 50.87312316894531 1.5 45 C 1.5 39.12687683105469 2.649924993515015 33.43022537231445 4.917825222015381 28.06830024719238 C 7.108687400817871 22.88852500915527 10.24541282653809 18.23629951477051 14.2408504486084 14.2408504486084 C 18.23629951477051 10.24541282653809 22.88852500915527 7.108687400817871 28.06830024719238 4.917825222015381 C 33.43022537231445 2.649924993515015 39.12687683105469 1.5 45 1.5 C 50.87312316894531 1.5 56.56977462768555 2.649924993515015 61.93170166015625 4.917825222015381 C 67.11147308349609 7.108687400817871 71.76370239257812 10.24541282653809 75.75914764404297 14.2408504486084 C 79.75458526611328 18.23629951477051 82.89131164550781 22.88852500915527 85.08217620849609 28.06830024719238 C 87.35007476806641 33.43022537231445 88.5 39.12687683105469 88.5 45 C 88.5 50.87312316894531 87.35007476806641 56.56977462768555 85.08217620849609 61.93170166015625 C 82.89131164550781 67.11147308349609 79.75458526611328 71.76370239257812 75.75914764404297 75.75914764404297 C 71.76370239257812 79.75458526611328 67.11147308349609 82.89131164550781 61.93170166015625 85.08217620849609 C 56.56977462768555 87.35007476806641 50.87312316894531 88.5 45 88.5 Z" stroke="none"/>
        <path d="M 45 3 C 39.32871246337891 3 33.82865524291992 4.110054016113281 28.65262985229492 6.299339294433594 C 23.65165710449219 8.414573669433594 19.15968322753906 11.44334411621094 15.301513671875 15.301513671875 C 11.44334411621094 19.15968322753906 8.414573669433594 23.65165710449219 6.299339294433594 28.65262985229492 C 4.110054016113281 33.82865524291992 3 39.32871246337891 3 45 C 3 50.67128753662109 4.110054016113281 56.17134475708008 6.299339294433594 61.34737396240234 C 8.414573669433594 66.34834289550781 11.44334411621094 70.84031677246094 15.301513671875 74.698486328125 C 19.15968322753906 78.55665588378906 23.65165710449219 81.58542633056641 28.65262985229492 83.70066070556641 C 33.82865524291992 85.88994598388672 39.32871246337891 87 45 87 C 50.67128753662109 87 56.17134475708008 85.88994598388672 61.34737396240234 83.70066070556641 C 66.34834289550781 81.58542633056641 70.84031677246094 78.55665588378906 74.698486328125 74.698486328125 C 78.55665588378906 70.84031677246094 81.58542633056641 66.34834289550781 83.70066070556641 61.34737396240234 C 85.88994598388672 56.17134475708008 87 50.67128753662109 87 45 C 87 39.32871246337891 85.88994598388672 33.82865524291992 83.70066070556641 28.65262985229492 C 81.58542633056641 23.65165710449219 78.55665588378906 19.15968322753906 74.698486328125 15.301513671875 C 70.84031677246094 11.44334411621094 66.34834289550781 8.414573669433594 61.34737396240234 6.299339294433594 C 56.17134475708008 4.110054016113281 50.67128753662109 3 45 3 M 45 0 C 69.85281372070312 0 90 20.14718627929688 90 45 C 90 69.85281372070312 69.85281372070312 90 45 90 C 20.14718627929688 90 0 69.85281372070312 0 45 C 0 20.14718627929688 20.14718627929688 0 45 0 Z" stroke="none" fill="#2a5673"/>
      </g>
    </g>
    <g id="Grupo_1143780" data-name="Grupo 1143780" transform="translate(306.478 5033.352)">
      <path id="Trazado_978995" data-name="Trazado 978995" d="M166.75,302l-11.64,9L141,316.631v8.532h38.682V302Z" transform="translate(-100.797 -267.024)" fill="#ffb954"/>
      <g id="Grupo_1143777" data-name="Grupo 1143777" transform="translate(28.158 14.392)">
        <path id="Trazado_978996" data-name="Trazado 978996" d="M374.782,130.343h0a5.336,5.336,0,0,1,2.11,4.25v10.257h9.5V131.73a8.9,8.9,0,0,0-4.052-7.465h0Z" transform="translate(-335.662 -124.265)" fill="#6a80ff"/>
        <path id="Trazado_978997" data-name="Trazado 978997" d="M42.726,307.955l5.237-3.555a4.252,4.252,0,0,1,2.388-.734h0a4.252,4.252,0,0,1,4.252,4.252v7.961L49.045,318.1V310.6l-5.868,3.51a1.27,1.27,0,0,0-.618,1.09v11.441H37v-22.97" transform="translate(-37 -282.889)" fill="#6a80ff"/>
      </g>
      <g id="Grupo_1143778" data-name="Grupo 1143778" transform="translate(28.158 19.581)">
        <path id="Trazado_978998" data-name="Trazado 978998" d="M37,188.945V178.409a4.171,4.171,0,0,1,2.769-3.929L54.6,169.189a2.077,2.077,0,0,1,2.484.9h0a2.077,2.077,0,0,1-.61,2.77l-10.205,7.013" transform="translate(-37 -169.068)" fill="#a0e557"/>
        <path id="Trazado_978999" data-name="Trazado 978999" d="M43.406,264.925H37V255h9.265v7.067A2.859,2.859,0,0,0,43.406,264.925Z" transform="translate(-37 -245.048)" fill="#a0e557"/>
      </g>
      <path id="Trazado_979000" data-name="Trazado 979000" d="M235.359,76.824l-7.721-5.216a5.828,5.828,0,0,0-6.769.175l-11.49,8.657a2.077,2.077,0,0,0-.537,2.718h0a2.077,2.077,0,0,0,2.573.863l11.235-4.6L227.8,82.9" transform="translate(-160.525 -62.432)" fill="#72d8ff"/>
      <g id="Grupo_1143779" data-name="Grupo 1143779" transform="translate(28.495 1.158)">
        <path id="Trazado_979001" data-name="Trazado 979001" d="M44.2,122.174h0a4.3,4.3,0,0,0-4.3,4.3v.74a4.3,4.3,0,0,0,4.3,4.3h0a4.3,4.3,0,0,0,4.3-4.3v-.74A4.3,4.3,0,0,0,44.2,122.174Z" transform="translate(-39.905 -109.182)" fill="#fcc69d"/>
        <path id="Trazado_979002" data-name="Trazado 979002" d="M249.9,11.258h0a4.3,4.3,0,0,0,0,6.076l.524.524a4.3,4.3,0,0,0,6.076,0h0a4.3,4.3,0,0,0,0-6.076l-.524-.524A4.3,4.3,0,0,0,249.9,11.258Z" transform="translate(-224.469 -10)" fill="#fcc69d"/>
      </g>
      <path id="Trazado_979003" data-name="Trazado 979003" d="M28.158,403.316a1.159,1.159,0,1,0-.819-.339A1.166,1.166,0,0,0,28.158,403.316Z" transform="translate(0 -354.558)"/>
      <path id="Trazado_979004" data-name="Trazado 979004" d="M75.483,13.433h0L67.761,8.217A6.983,6.983,0,0,0,62.829,7.1a5.5,5.5,0,0,0,.115-1.118,5.419,5.419,0,0,0-1.6-3.857L60.823,1.6a5.454,5.454,0,0,0-7.714,7.714l.524.524a5.426,5.426,0,0,0,2.316,1.377l-7.792,5.871a3.226,3.226,0,0,0-1.068,1.407,3.218,3.218,0,0,0-1.724.121L37.817,21.3a5.424,5.424,0,0,0,.428-2.119v-.741a5.454,5.454,0,0,0-10.909,0v.741a5.459,5.459,0,0,0,2.919,4.827A5.34,5.34,0,0,0,27,28.922V42.736a1.158,1.158,0,0,0,2.316,0V40.616h4.568a1.153,1.153,0,0,0,.65-.2h0l5.237-3.555a3.094,3.094,0,0,1,4.832,2.56V46.6l-3.243,1.3V42.1a1.158,1.158,0,0,0-1.753-.994l-5.868,3.51A2.439,2.439,0,0,0,32.559,46.7V56.981H29.316V52.119a1.158,1.158,0,1,0-2.316,0v6.02A1.158,1.158,0,0,0,28.158,59.3h5.559a1.158,1.158,0,0,0,1.158-1.158V46.7a.112.112,0,0,1,.054-.1l4.115-2.462v14A1.158,1.158,0,0,0,40.2,59.3H78.885a1.158,1.158,0,0,0,1.158-1.158V21.857A10.026,10.026,0,0,0,75.483,13.433Zm2.244,8.424V33.818H75.411V24.684a1.158,1.158,0,0,0-2.316,0v9.134H70.547v-9.1a6.531,6.531,0,0,0-1.52-4.17l5.843-4.7A7.714,7.714,0,0,1,77.727,21.857ZM54.747,7.673a3.138,3.138,0,1,1,4.438-4.438l.524.524A3.138,3.138,0,0,1,55.271,8.2Zm-5.2,11.26,11.49-8.657a4.671,4.671,0,0,1,5.424-.14l6.42,4.337-5.666,4.558-4.444-3a1.158,1.158,0,0,0-1.087-.112l-11.235,4.6a.924.924,0,0,1-1.136-.378l0-.005A.918.918,0,0,1,49.551,18.933Zm-19.9-.487a3.138,3.138,0,1,1,6.276,0v.741a3.138,3.138,0,1,1-6.276,0Zm-.336,10.476a3.019,3.019,0,0,1,2-2.838l14.827-5.291a.919.919,0,0,1,.829,1.622L36.767,29.428a1.158,1.158,0,0,0-.5.954v6.06L33.529,38.3H29.316V28.922Zm12.194,5.09a5.389,5.389,0,0,0-2.928.862V30.991l9.7-6.668a3.216,3.216,0,0,0,1.178-1.491,3.262,3.262,0,0,0,.655.068,3.194,3.194,0,0,0,1.212-.238L61.992,18.3l4.6,3.109a4.2,4.2,0,0,1,1.636,3.315v9.1H65.953a1.159,1.159,0,0,0-.708.242l-11.512,8.9L46.92,45.677V39.421A5.417,5.417,0,0,0,41.51,34.011Zm36.217,22.97H41.361V50.392l13.381-5.345a1.157,1.157,0,0,0,.279-.159l11.328-8.753H77.727Z"/>
      <path id="Trazado_979005" data-name="Trazado 979005" d="M394.825,354.649h1.544v4.478a1.158,1.158,0,1,0,2.316,0v-5.636a1.158,1.158,0,0,0-1.158-1.158h-2.7a1.158,1.158,0,1,0,0,2.316Z" transform="translate(-324.201 -311.527)"/>
      <path id="Trazado_979006" data-name="Trazado 979006" d="M418.158,440.02a1.159,1.159,0,1,0,.819.339A1.167,1.167,0,0,0,418.158,440.02Z" transform="translate(-344.832 -389.059)"/>
    </g>
  </g>
</svg>
