<svg id="Grupo_1143755" data-name="Grupo 1143755" xmlns="http://www.w3.org/2000/svg" xmlns:xlink="http://www.w3.org/1999/xlink" width="353.168" height="214.937" viewBox="0 0 353.168 214.937">
  <defs>
    <clipPath id="clip-path">
      <rect id="Rectángulo_405168" data-name="Rectángulo 405168" width="353.168" height="214.937" fill="none"/>
    </clipPath>
  </defs>
  <g id="Grupo_1143754" data-name="Grupo 1143754" clip-path="url(#clip-path)">
    <path id="Trazado_978703" data-name="Trazado 978703" d="M346.035,195.151a23.275,23.275,0,0,1-2.075,3.239A41.9,41.9,0,0,1,332.1,208.506q-2.288,1.4-4.861,2.716c-8.095,4.166-18.21,7.788-29.792,10.9-.717.194-1.444.388-2.177.577l-.183.049c-1.374.361-2.775.711-4.188,1.051a412.865,412.865,0,0,1-42.112,7.647l-.857.113c-.07.011-.135.016-.2.027-20.172,2.657-41.837,4.408-63.421,5.325q-5.093.218-10.17.372c-.571.016-1.143.038-1.714.048-.5.016-1,.032-1.5.043q-3.258.089-6.5.151c-.814.022-1.628.032-2.441.049-.614.011-1.229.022-1.849.027-5.319.081-10.6.108-15.818.092-44.613-.156-84.494-3.81-104.553-10.089-57.967-18.14-45.189-62.812-8.515-71.888s18.4-45.922,58.873-77.9c41.072-32.449,57.768-5.977,73.72-13.333,50.87-23.444,94.011-16.863,105.571,1.056,23.1,35.8-9.2,80.931,20.959,73.979,36.033-8.31,80.3,8.8,55.661,55.634" transform="translate(0 -22.762)" fill="#ebeeff"/>
    <path id="Trazado_978704" data-name="Trazado 978704" d="M88.329,219.57c-3.442-7.9-8.989-3.008-8.989-3.008a9.6,9.6,0,0,0-10.993-4.687c-4.876,1.079-21.41,11.885-14.606,22.579C68.26,257.274,93.789,232.1,88.329,219.57" transform="translate(-24.032 -97.551)" fill="#373b54"/>
    <rect id="Rectángulo_405164" data-name="Rectángulo 405164" width="10.154" height="20.183" transform="matrix(0.997, -0.072, 0.072, 0.997, 41.099, 141.895)" fill="#fbaf7b"/>
    <path id="Trazado_978705" data-name="Trazado 978705" d="M76.261,262.708l.521,7.179c2.951,2.56,7.4,4.277,10.563,5.262l-.893-12.31c-.265-.28-.529-.551-.811-.812Z" transform="translate(-35.162 -120.812)" fill="#fb8862"/>
    <path id="Trazado_978706" data-name="Trazado 978706" d="M94.882,229.511s6.415,15.944-3.015,25.688a6.3,6.3,0,0,1-5.352,1.821c-3.174-.411-7.859-1.64-9-5.3-1.767-5.664-4.111-19.3,1.245-21.9s16.122-.307,16.122-.307" transform="translate(-34.788 -105.388)" fill="#fbaf7b"/>
    <path id="Trazado_978707" data-name="Trazado 978707" d="M74.493,252.171s-5.89-4.749-9.45-1.163,5.3,10.214,7.617,6.472,1.833-5.309,1.833-5.309" transform="translate(-29.605 -115.115)" fill="#fbaf7b"/>
    <path id="Trazado_978708" data-name="Trazado 978708" d="M94.2,236.614s-.131-5.523-2.448-4.253-4.455,4-10.2-.268c-4.365-3.238-6.78,9.029-6.78,9.029s-1.865-3.521-5.144-3.044c0,0,2.249-13.131,7.37-13.709s16.565.588,17.385,3.351-.181,8.894-.181,8.894" transform="translate(-32.101 -103.383)" fill="#373b54"/>
    <path id="Trazado_978709" data-name="Trazado 978709" d="M107.511,255.765c.056.767.394,1.367.757,1.341s.612-.669.556-1.436-.394-1.367-.757-1.34-.611.669-.556,1.436" transform="translate(-49.567 -117.263)" fill="#373b54"/>
    <path id="Trazado_978710" data-name="Trazado 978710" d="M92.215,255.184c.056.767.395,1.367.757,1.341s.611-.669.555-1.436-.394-1.367-.757-1.34-.611.669-.556,1.436" transform="translate(-42.514 -116.995)" fill="#373b54"/>
    <path id="Trazado_978711" data-name="Trazado 978711" d="M99.162,265.337c-.206-.036-7.022-.962-7.022-.962s2.506,9.359,6.816.926Z" transform="translate(-42.483 -121.895)" fill="#fff"/>
    <path id="Trazado_978712" data-name="Trazado 978712" d="M72.559,341.358c-.6-.056-1.187-.112-1.776-.178-13.979-1.539-26.64-5.414-37.123-13.19,0-.005,0-1.339,0-1.339A251.214,251.214,0,0,1,41.4,301.26c1.773-4.611,3.564-8.246,5.243-9.983a7.423,7.423,0,0,1,4.641-2.234l6.316-.585.088-.01c7.347,8.1,10.066.624,10.125.463l3.044,3.975a21.027,21.027,0,0,1,3.726,7.734,4.032,4.032,0,0,1,.085.8l-.295,5.566-.626,11.783Z" transform="translate(-15.52 -132.994)" fill="#d64d8b"/>
    <path id="Trazado_978713" data-name="Trazado 978713" d="M145.538,297.874l-19.991,10.044L97.039,289.306l4.077,27.747,13.466,7.8a10.829,10.829,0,0,0,11.929-.813l29.213-17.183Z" transform="translate(-44.742 -133.39)" fill="#d64d8b"/>
    <path id="Trazado_978714" data-name="Trazado 978714" d="M91.229,320.243,63.589,313.5l-14.831-13.01-5.2,23.393,7.039,7.429a10.828,10.828,0,0,0,11.891,1.253l34.794,1.4Z" transform="translate(-20.081 -138.546)" fill="#d64d8b"/>
    <path id="Trazado_978715" data-name="Trazado 978715" d="M138.066,347.9l15.917-.506a1.017,1.017,0,0,0,.817-1.578c-1.756-2.646-5.451-6.308-6.612-6.866-1.562-.751-8.344-3.015-8.344-3.015l2.184-2.313a1.519,1.519,0,0,0,0-2.089,2.619,2.619,0,0,0-2.995-.577l-7.013,3.222Z" transform="translate(-60.869 -152.484)" fill="#fbaf7b"/>
    <path id="Trazado_978716" data-name="Trazado 978716" d="M73.961,258.295s-1.561-.514-1.285-1.437a1.9,1.9,0,0,1,1.412-1.13s-1.373-3.152-3.36-2.064.142,4.719,3.233,4.631" transform="translate(-32.254 -116.851)" fill="#fb8862"/>
    <path id="Trazado_978717" data-name="Trazado 978717" d="M73.981,204.653a9.457,9.457,0,1,1-9.457-9.457,9.457,9.457,0,0,1,9.457,9.457" transform="translate(-25.39 -89.999)" fill="#373b54"/>
    <path id="Trazado_978718" data-name="Trazado 978718" d="M102.364,348.284s-47.04,0-47.781-16.738" transform="translate(-25.167 -152.866)" fill="none" stroke="#b84277" stroke-linecap="round" stroke-miterlimit="10" stroke-width="3"/>
    <path id="Trazado_978719" data-name="Trazado 978719" d="M67.607,292.039s3.472-.207,5.4,6.91" transform="translate(-31.171 -134.65)" fill="none" stroke="#b84277" stroke-linecap="round" stroke-miterlimit="10" stroke-width="3"/>
    <line id="Línea_658" data-name="Línea 658" x2="22.012" y2="5.37" transform="translate(46.57 175.7)" fill="none" stroke="#b84277" stroke-linecap="round" stroke-miterlimit="10" stroke-width="3"/>
    <circle id="Elipse_11551" data-name="Elipse 11551" cx="4.24" cy="4.24" r="4.24" transform="translate(233.659 40.546) rotate(-22.5)" fill="none" stroke="#fff" stroke-linecap="round" stroke-miterlimit="10" stroke-width="3"/>
    <line id="Línea_659" data-name="Línea 659" y2="6.602" transform="translate(258.963 50.327)" fill="none" stroke="#fff" stroke-linecap="round" stroke-miterlimit="10" stroke-width="3"/>
    <line id="Línea_660" data-name="Línea 660" x1="6.602" transform="translate(255.662 53.628)" fill="none" stroke="#fff" stroke-linecap="round" stroke-miterlimit="10" stroke-width="3"/>
    <line id="Línea_661" data-name="Línea 661" y2="6.602" transform="translate(94.102 65.585)" fill="none" stroke="#fff" stroke-linecap="round" stroke-miterlimit="10" stroke-width="3"/>
    <line id="Línea_662" data-name="Línea 662" x1="6.602" transform="translate(90.801 68.886)" fill="none" stroke="#fff" stroke-linecap="round" stroke-miterlimit="10" stroke-width="3"/>
    <path id="Trazado_978720" data-name="Trazado 978720" d="M362.428,91.8s11.834-6.1,17.807-5.245a10.307,10.307,0,0,1,7.924,6.339l-15.555,9.8-3.159.689Z" transform="translate(-167.104 -39.87)" fill="#fbaf7b"/>
    <rect id="Rectángulo_405165" data-name="Rectángulo 405165" width="20.182" height="10.154" transform="translate(138.429 62.611) rotate(-79.38)" fill="#fbaf7b"/>
    <path id="Trazado_978721" data-name="Trazado 978721" d="M262.626,79.368,261.3,86.443c2.2,3.228,6.065,6.023,8.872,7.782l2.275-12.131c-.185-.338-.371-.668-.578-.992Z" transform="translate(-120.477 -36.594)" fill="#fb8862"/>
    <path id="Trazado_978722" data-name="Trazado 978722" d="M287.009,53.055s1.829,15.722-8.568,24.963a2.727,2.727,0,0,1-2.6.579c-3.275-.984-11.083-3.813-11.291-8.494-.264-5.927.944-19.707,6.788-20.862s15.667,3.813,15.667,3.813" transform="translate(-121.962 -22.623)" fill="#fbaf7b"/>
    <path id="Trazado_978723" data-name="Trazado 978723" d="M264.082,68.919s-4.485-6.093-8.842-3.533,2.522,11.227,5.716,8.2,3.126-4.667,3.126-4.667" transform="translate(-117.036 -29.858)" fill="#fbaf7b"/>
    <path id="Trazado_978724" data-name="Trazado 978724" d="M296.31,76.12c-.142.756.033,1.422.39,1.489s.762-.491.9-1.247-.033-1.422-.39-1.489-.762.491-.9,1.247" transform="translate(-136.597 -34.519)" fill="#373b54"/>
    <path id="Trazado_978725" data-name="Trazado 978725" d="M281.33,73.454c-.142.756.033,1.422.39,1.489s.762-.491.9-1.247-.033-1.422-.39-1.489-.762.491-.9,1.247" transform="translate(-129.69 -33.29)" fill="#373b54"/>
    <path id="Trazado_978726" data-name="Trazado 978726" d="M285.384,87.186c-.19-.087-6.545-2.721-6.545-2.721s.037,9.688,6.355,2.633Z" transform="translate(-128.564 -38.944)" fill="#fff"/>
    <path id="Trazado_978727" data-name="Trazado 978727" d="M221.962,155.9c11.63,4.489,25.082,5.81,36.852,5.238l-.965-18.534-1.358-26a9.367,9.367,0,0,0-3.045-5.75l-1.789-1.59-.038-.038s-1.52,5.54-9.949-1.611l-.038.011-6.241,1.417a7.781,7.781,0,0,0-1.4.469,7.439,7.439,0,0,0-2.9,2.344c-3.25,4.387-5.826,18.485-7.594,31.463-.609,4.479-1.121,8.817-1.531,12.584" transform="translate(-102.34 -49.616)" fill="#f3c700"/>
    <path id="Trazado_978728" data-name="Trazado 978728" d="M189.855,148.053c3.379,3.67,9.408,5.983,13.9,8.376,2.608-3.735,3.708-5.719,6.328-8.376a53.864,53.864,0,0,0,8.844-12.258l1.66-25.535c-.469.14-.938.3-1.4.469-12.347,4.608-21.992,23.538-29.332,37.324" transform="translate(-87.536 -50.837)" fill="#f3c700"/>
    <path id="Trazado_978729" data-name="Trazado 978729" d="M334.723,114.8l-20.171,17.744L281.292,122.41l-4.23-18.34,27.521,7.418,18.486-15.133Z" transform="translate(-127.745 -44.427)" fill="#f3c700"/>
    <path id="Trazado_978730" data-name="Trazado 978730" d="M258.025,50.743s-1.392-9.509,3.414-12.848c3.477-2.415,5.217.128,5.217.128s4.195-5.689,10.8-3.679c2.452.746,5.828,3.76,8.993,6.047a6.6,6.6,0,0,1-.479,11.057c-3.072,1.774-7.291,2.155-12.811-1.526,0,0-4.388-4.351-9.553,4.869,0,0-1.27-5.262-5.579-4.048" transform="translate(-118.881 -15.637)" fill="#373b54"/>
    <path id="Trazado_978731" data-name="Trazado 978731" d="M261.416,73.258s-1.561-.514-1.285-1.436a1.9,1.9,0,0,1,1.412-1.131s-1.373-3.153-3.36-2.064.142,4.718,3.233,4.63" transform="translate(-118.684 -31.537)" fill="#fb8862"/>
    <path id="Trazado_978732" data-name="Trazado 978732" d="M243.593,113.8s5.649,1.159.666,15.113" transform="translate(-112.313 -52.47)" fill="none" stroke="#fb8862" stroke-linecap="round" stroke-miterlimit="10" stroke-width="3"/>
    <path id="Trazado_978733" data-name="Trazado 978733" d="M268.3,37.463s-2.926-5.444-1.277-6.56,3.232,3.813,3.232,3.813a14.263,14.263,0,0,1,.827-3.368.821.821,0,0,1,1.573.222c.224,1.893.878,4.554,2.743,6.1,3.125,2.59-7.1-.207-7.1-.207" transform="translate(-122.883 -14.172)" fill="#373b54"/>
    <path id="Trazado_978734" data-name="Trazado 978734" d="M398.273,159a30.253,30.253,0,1,1,.358-42.783A30.253,30.253,0,0,1,398.273,159" transform="translate(-159.902 -49.414)" fill="#fff"/>
    <path id="Trazado_978735" data-name="Trazado 978735" d="M379.458,161a14.976,14.976,0,1,1,21.179.176A14.993,14.993,0,0,1,379.458,161" transform="translate(-172.978 -62.49)" fill="#bfc9ff"/>
    <path id="Trazado_978736" data-name="Trazado 978736" d="M437.411,126.126l5.816-9.418a1.8,1.8,0,0,0-.248-2.2l-2.692-2.738-.722-.734-2.693-2.738a1.8,1.8,0,0,0-2.2-.285l-9.514,5.658,6.434,5.927Z" transform="translate(-196.028 -49.684)" fill="#fff"/>
    <path id="Trazado_978737" data-name="Trazado 978737" d="M404.358,105.834l-2.547-10.772a1.8,1.8,0,0,0-1.734-1.383l-3.84-.032-1.029-.009-3.84-.032a1.8,1.8,0,0,0-1.757,1.354l-2.726,10.728,8.74-.359Z" transform="translate(-178.381 -43.159)" fill="#fff"/>
    <path id="Trazado_978738" data-name="Trazado 978738" d="M365.314,113.241l-9.418-5.816a1.8,1.8,0,0,0-2.2.248l-2.738,2.692-.734.722-2.738,2.692a1.8,1.8,0,0,0-.285,2.2l5.658,9.514,5.927-6.434Z" transform="translate(-159.966 -49.407)" fill="#fff"/>
    <path id="Trazado_978739" data-name="Trazado 978739" d="M345.022,147.032l-10.772,2.547a1.8,1.8,0,0,0-1.383,1.734l-.032,3.84-.009,1.029-.032,3.84a1.8,1.8,0,0,0,1.354,1.757l10.728,2.726-.359-8.74Z" transform="translate(-153.441 -67.792)" fill="#fff"/>
    <path id="Trazado_978740" data-name="Trazado 978740" d="M352.429,185.309l-5.816,9.418a1.8,1.8,0,0,0,.248,2.2l2.693,2.737.721.734,2.693,2.738a1.8,1.8,0,0,0,2.2.285l9.514-5.658-6.434-5.927Z" transform="translate(-159.689 -85.44)" fill="#fff"/>
    <path id="Trazado_978741" data-name="Trazado 978741" d="M386.22,210.854l2.547,10.772a1.8,1.8,0,0,0,1.734,1.383l3.84.032,1.029.009,3.84.032a1.8,1.8,0,0,0,1.757-1.354L403.693,211l-8.74.359Z" transform="translate(-178.074 -97.218)" fill="#fff"/>
    <path id="Trazado_978742" data-name="Trazado 978742" d="M424.5,198.223l9.418,5.816a1.8,1.8,0,0,0,2.2-.248l2.738-2.692.734-.722,2.738-2.693a1.8,1.8,0,0,0,.285-2.2l-5.658-9.514-5.927,6.434Z" transform="translate(-195.722 -85.745)" fill="#fff"/>
    <path id="Trazado_978743" data-name="Trazado 978743" d="M450.042,165.17l10.772-2.547a1.8,1.8,0,0,0,1.383-1.734l.032-3.84.009-1.029.032-3.84a1.8,1.8,0,0,0-1.354-1.757L450.188,147.7l.359,8.74Z" transform="translate(-207.5 -68.098)" fill="#fff"/>
    <path id="Trazado_978744" data-name="Trazado 978744" d="M403.7,175.757a2.41,2.41,0,1,1-2.41-2.41,2.409,2.409,0,0,1,2.41,2.41" transform="translate(-183.912 -79.925)" fill="#fff"/>
    <path id="Trazado_978745" data-name="Trazado 978745" d="M404.164,157.888a5.416,5.416,0,0,1-1.45,3.7,5.55,5.55,0,0,0-1.083,1.694,5.186,5.186,0,0,0-.376,1.628c-.009.112-.013.225-.013.338h-5.035c0-.113,0-.226-.011-.338a5.166,5.166,0,0,0-1.4-3.263,5.418,5.418,0,0,1-1.5-3.459,4.829,4.829,0,0,1,0-.538,5.463,5.463,0,0,1,5.422-5.2,5.438,5.438,0,0,1,5.45,5.438" transform="translate(-181.332 -70.29)" fill="#fff"/>
    <rect id="Rectángulo_405166" data-name="Rectángulo 405166" width="4.976" height="1.465" transform="translate(214.919 94.969)" fill="#fff"/>
    <path id="Trazado_978746" data-name="Trazado 978746" d="M402.2,156.334a4.647,4.647,0,0,1-8.908,1.852,5.1,5.1,0,0,1,0-.538,5.464,5.464,0,0,1,5.422-5.2,5.4,5.4,0,0,1,1.8.3,4.635,4.635,0,0,1,1.686,3.58" transform="translate(-181.332 -70.29)" fill="#fff"/>
    <path id="Trazado_978747" data-name="Trazado 978747" d="M403.142,145h0a.865.865,0,0,1-.863-.862v-2.588a.863.863,0,1,1,1.725,0v2.588a.865.865,0,0,1-.862.862" transform="translate(-185.478 -64.864)" fill="#fff"/>
    <path id="Trazado_978748" data-name="Trazado 978748" d="M413.64,150.624h0a.865.865,0,0,1,.175-1.207l2.073-1.548a.862.862,0,1,1,1.032,1.382l-2.073,1.549a.866.866,0,0,1-1.207-.175" transform="translate(-190.638 -68.099)" fill="#fff"/>
    <path id="Trazado_978749" data-name="Trazado 978749" d="M389.439,146.78h0a.865.865,0,0,1,1.22,0l1.83,1.83a.863.863,0,0,1-1.22,1.22l-1.83-1.83a.866.866,0,0,1,0-1.22" transform="translate(-179.442 -67.56)" fill="#fff"/>
    <path id="Trazado_978750" data-name="Trazado 978750" d="M386.016,159.927h-2.03a.913.913,0,1,1,0-1.826h2.03a.913.913,0,1,1,0,1.826" transform="translate(-176.623 -72.895)" fill="#fff"/>
    <path id="Trazado_978751" data-name="Trazado 978751" d="M421.739,161.469H419.4a.837.837,0,0,1,0-1.674h2.334a.837.837,0,0,1,0,1.674" transform="translate(-192.989 -73.676)" fill="#fff"/>
    <path id="Trazado_978752" data-name="Trazado 978752" d="M403.115,177.67h-5.1a.74.74,0,0,1,0-1.479h5.1a.74.74,0,0,1,0,1.479" transform="translate(-183.171 -81.236)" fill="#fff"/>
    <path id="Trazado_978753" data-name="Trazado 978753" d="M240.93,216.678a46.341,46.341,0,1,1-46.342-46.342,46.342,46.342,0,0,1,46.342,46.342" transform="translate(-68.352 -78.537)" fill="#bfc9ff"/>
    <path id="Trazado_978754" data-name="Trazado 978754" d="M214.609,259.639a22.941,22.941,0,1,1,22.94-22.942,22.966,22.966,0,0,1-22.94,22.942" transform="translate(-88.373 -98.557)" fill="#ebeeff"/>
    <path id="Trazado_978755" data-name="Trazado 978755" d="M236.167,168.294l-4.039-16.467a2.753,2.753,0,0,0-2.674-2.1h-13.34a2.753,2.753,0,0,0-2.674,2.1L209.4,168.294l13.383-.662Z" transform="translate(-96.549 -69.035)" fill="#bfc9ff"/>
    <path id="Trazado_978756" data-name="Trazado 978756" d="M176.413,180.1l-14.5-8.788a2.753,2.753,0,0,0-3.373.407l-4.159,4.159-1.115,1.115-4.159,4.159a2.753,2.753,0,0,0-.407,3.373l8.788,14.5,9-9.931Z" transform="translate(-68.377 -78.803)" fill="#bfc9ff"/>
    <path id="Trazado_978757" data-name="Trazado 978757" d="M145.82,232.074l-16.467,4.039a2.753,2.753,0,0,0-2.1,2.674v13.34a2.753,2.753,0,0,0,2.1,2.674l16.467,4.039-.662-13.383Z" transform="translate(-58.673 -107.002)" fill="#bfc9ff"/>
    <path id="Trazado_978758" data-name="Trazado 978758" d="M157.627,290.676l-8.788,14.5a2.753,2.753,0,0,0,.407,3.373l4.159,4.159,1.115,1.115,4.159,4.159a2.753,2.753,0,0,0,3.373.407l14.5-8.788-9.931-9Z" transform="translate(-68.441 -134.022)" fill="#bfc9ff"/>
    <path id="Trazado_978759" data-name="Trazado 978759" d="M209.6,329.438l4.039,16.467a2.753,2.753,0,0,0,2.674,2.1h13.34a2.753,2.753,0,0,0,2.674-2.1l4.039-16.467-13.383.662Z" transform="translate(-96.64 -151.894)" fill="#bfc9ff"/>
    <path id="Trazado_978760" data-name="Trazado 978760" d="M268.2,309.462l14.5,8.788a2.754,2.754,0,0,0,3.374-.407l4.159-4.159,1.115-1.115,4.159-4.159a2.752,2.752,0,0,0,.408-3.373l-8.788-14.5-8.995,9.931Z" transform="translate(-123.66 -133.957)" fill="#bfc9ff"/>
    <path id="Trazado_978761" data-name="Trazado 978761" d="M306.964,258.641l16.467-4.039a2.753,2.753,0,0,0,2.1-2.674v-13.34a2.753,2.753,0,0,0-2.1-2.674l-16.467-4.039.662,13.383Z" transform="translate(-141.532 -106.911)" fill="#bfc9ff"/>
    <path id="Trazado_978762" data-name="Trazado 978762" d="M286.988,198.887l8.788-14.5a2.753,2.753,0,0,0-.407-3.373l-4.159-4.159-1.115-1.115-4.159-4.159a2.753,2.753,0,0,0-3.373-.407l-14.5,8.788,9.931,9Z" transform="translate(-123.595 -78.739)" fill="#bfc9ff"/>
    <path id="Trazado_978763" data-name="Trazado 978763" d="M235.652,242.68a8.454,8.454,0,0,0-16.907,0,8.362,8.362,0,0,0,.047.883h0s.708,7.819,8.383,14.106v.054c.012-.01.022-.019.033-.026a.351.351,0,0,1,.033.026v-.054c7.675-6.287,8.384-14.106,8.384-14.106h-.012a8.554,8.554,0,0,0,.044-.883m-8.453,4.691a4.937,4.937,0,1,1,4.937-4.937,4.937,4.937,0,0,1-4.937,4.937" transform="translate(-100.857 -107.994)" fill="#fff"/>
    <path id="Trazado_978764" data-name="Trazado 978764" d="M341.227,318.869l-9.286,2.2,8.558,4.117a54.068,54.068,0,0,1-15.521,29.523q-5.093.218-10.17.372c-.571.016-1.143.038-1.714.048-.5.016-1,.032-1.5.043q-3.258.089-6.5.151a80.162,80.162,0,0,1,4.77-23.5c4.6-11.964,13.441-23.25,30.353-26.963a49.089,49.089,0,0,1,1.008,14.007" transform="translate(-140.671 -140.562)" fill="#469e9d"/>
    <path id="Trazado_978765" data-name="Trazado 978765" d="M342.96,317.221a.809.809,0,0,0-1.062-.426c-1.062.453-14.713,22.463-21.961,43.81.571-.011,1.143-.032,1.714-.048,7.227-21.029,20.145-41.282,21.078-42.392a.82.82,0,0,0,.232-.943" transform="translate(-147.513 -146.034)" fill="#fff"/>
    <path id="Trazado_978766" data-name="Trazado 978766" d="M277.97,335.586q-3.258.089-6.5.151c-.814.022-1.628.032-2.441.048-.614.011-1.229.022-1.849.027-5.319.081-10.6.108-15.818.092-14.33-17.278-27.976-43.74-12.04-73.532a67.838,67.838,0,0,1,15.651,11.673l-6.122,11.916,12.11-5.384a74.863,74.863,0,0,1,15.279,31.657,86.477,86.477,0,0,1,1.73,23.352" transform="translate(-107.044 -120.972)" fill="#55c0bf"/>
    <path id="Trazado_978767" data-name="Trazado 978767" d="M251.473,283.5a.809.809,0,0,0-1.579-.291c-.48,1.5,9.97,35.036,25.454,61.95.62-.005,1.234-.016,1.849-.027-15.44-26.5-25.438-59.078-25.723-61.632" transform="translate(-115.211 -130.317)" fill="#fff"/>
    <path id="Trazado_978768" data-name="Trazado 978768" d="M405.318,272.919a26.465,26.465,0,1,1-26.465-26.465,26.465,26.465,0,0,1,26.465,26.465" transform="translate(-162.475 -113.632)" fill="#bfc9ff"/>
    <path id="Trazado_978769" data-name="Trazado 978769" d="M390.287,297.453a13.1,13.1,0,1,1,13.1-13.1,13.116,13.116,0,0,1-13.1,13.1" transform="translate(-173.909 -125.065)" fill="#ebeeff"/>
    <path id="Trazado_978770" data-name="Trazado 978770" d="M402.6,245.288l-2.307-9.4a1.573,1.573,0,0,0-1.527-1.2h-7.618a1.573,1.573,0,0,0-1.527,1.2l-2.307,9.4,7.643-.378Z" transform="translate(-178.578 -108.206)" fill="#bfc9ff"/>
    <path id="Trazado_978771" data-name="Trazado 978771" d="M368.474,252.031l-8.281-5.019a1.573,1.573,0,0,0-1.927.233l-2.375,2.375-.637.637-2.375,2.375a1.572,1.572,0,0,0-.233,1.927l5.018,8.281,5.137-5.671Z" transform="translate(-162.49 -113.785)" fill="#bfc9ff"/>
    <path id="Trazado_978772" data-name="Trazado 978772" d="M351,281.711l-9.4,2.307a1.573,1.573,0,0,0-1.2,1.527v7.618a1.573,1.573,0,0,0,1.2,1.527L351,297l-.378-7.643Z" transform="translate(-156.948 -129.888)" fill="#bfc9ff"/>
    <path id="Trazado_978773" data-name="Trazado 978773" d="M357.746,315.178l-5.019,8.281a1.572,1.572,0,0,0,.233,1.927l2.375,2.375.636.636,2.375,2.376a1.573,1.573,0,0,0,1.927.233l8.281-5.019-5.671-5.137Z" transform="translate(-162.526 -145.319)" fill="#bfc9ff"/>
    <path id="Trazado_978774" data-name="Trazado 978774" d="M387.426,337.315l2.307,9.4a1.573,1.573,0,0,0,1.527,1.2h7.618a1.573,1.573,0,0,0,1.527-1.2l2.307-9.4-7.643.378Z" transform="translate(-178.63 -155.525)" fill="#bfc9ff"/>
    <path id="Trazado_978775" data-name="Trazado 978775" d="M420.893,325.907l8.281,5.019a1.573,1.573,0,0,0,1.927-.233l2.375-2.375.637-.636,2.375-2.375a1.572,1.572,0,0,0,.233-1.927L431.7,315.1l-5.137,5.671Z" transform="translate(-194.061 -145.282)" fill="#bfc9ff"/>
    <path id="Trazado_978776" data-name="Trazado 978776" d="M443.03,296.884l9.4-2.307a1.573,1.573,0,0,0,1.2-1.527v-7.618a1.573,1.573,0,0,0-1.2-1.527l-9.4-2.307.378,7.643Z" transform="translate(-204.267 -129.837)" fill="#bfc9ff"/>
    <path id="Trazado_978777" data-name="Trazado 978777" d="M431.622,262.759l5.019-8.281a1.572,1.572,0,0,0-.233-1.927l-2.375-2.375-.637-.636-2.375-2.375a1.572,1.572,0,0,0-1.927-.233l-8.281,5.018,5.671,5.137Z" transform="translate(-194.024 -113.748)" fill="#bfc9ff"/>
    <path id="Trazado_978778" data-name="Trazado 978778" d="M397.942,295.813l.017,1.231-2.008.026-.018-1.29a8.456,8.456,0,0,1-4.7-2.126l1.937-2.546a6.372,6.372,0,0,0,4.167,1.586c.967-.013,1.474-.371,1.466-.957-.009-.645-.448-.737-2.189-1.144-2.73-.628-4.84-1.362-4.878-4.156a4.261,4.261,0,0,1,4.012-4.411l-.017-1.231,2.008-.026.017,1.23a7.463,7.463,0,0,1,4.15,1.7l-1.734,2.7a6.016,6.016,0,0,0-3.6-1.3c-.858.011-1.273.388-1.266.9.009.683.451.892,2.245,1.279,2.93.626,4.767,1.442,4.8,4,.036,2.618-1.677,4.262-4.412,4.534" transform="translate(-180.384 -129.454)" fill="#fff"/>
    <path id="Trazado_978779" data-name="Trazado 978779" d="M528.214,152.468H510.64a14.5,14.5,0,0,1,0-29h17.574a14.5,14.5,0,1,1,0,29" transform="translate(-228.755 -56.929)" fill="#bfc9ff"/>
    <path id="Trazado_978780" data-name="Trazado 978780" d="M519.885,172.874l-7.357,9.6-1.166-10.318s8.344.718,8.523.718" transform="translate(-235.773 -79.376)" fill="#bfc9ff"/>
    <line id="Línea_663" data-name="Línea 663" x2="28.764" transform="translate(275.544 76.112)" fill="none" stroke="#fff" stroke-linecap="round" stroke-miterlimit="10" stroke-width="3"/>
    <line id="Línea_664" data-name="Línea 664" x2="26.383" transform="translate(275.987 81.041)" fill="none" stroke="#fff" stroke-linecap="round" stroke-miterlimit="10" stroke-width="3"/>
    <line id="Línea_665" data-name="Línea 665" x2="14.87" transform="translate(276.431 85.97)" fill="none" stroke="#fff" stroke-linecap="round" stroke-miterlimit="10" stroke-width="3"/>
    <path id="Trazado_978781" data-name="Trazado 978781" d="M72.325,145.814H89.9a14.5,14.5,0,1,0,0-29H72.325a14.5,14.5,0,0,0,0,29" transform="translate(-26.656 -53.861)" fill="#bfc9ff"/>
    <path id="Trazado_978782" data-name="Trazado 978782" d="M113.215,166.22l7.357,9.6,1.166-10.318s-8.344.718-8.523.718" transform="translate(-52.2 -76.308)" fill="#bfc9ff"/>
    <line id="Línea_666" data-name="Línea 666" x1="27.293" transform="translate(42.291 72.526)" fill="none" stroke="#fff" stroke-linecap="round" stroke-miterlimit="10" stroke-width="3"/>
    <line id="Línea_667" data-name="Línea 667" x1="11.693" transform="translate(42.757 77.455)" fill="none" stroke="#fff" stroke-linecap="round" stroke-miterlimit="10" stroke-width="3"/>
    <line id="Línea_668" data-name="Línea 668" x1="25.939" transform="translate(42.757 82.384)" fill="none" stroke="#fff" stroke-linecap="round" stroke-miterlimit="10" stroke-width="3"/>
    <path id="Trazado_978783" data-name="Trazado 978783" d="M366.152,29H348.577a14.5,14.5,0,1,1,0-29h17.575a14.5,14.5,0,0,1,13.577,19.58h0A14.5,14.5,0,0,1,366.152,29" transform="translate(-154.033)" fill="#bfc9ff"/>
    <path id="Trazado_978784" data-name="Trazado 978784" d="M357.824,49.4,350.467,59,349.3,48.684s8.344.718,8.523.718" transform="translate(-161.052 -22.447)" fill="#bfc9ff"/>
    <line id="Línea_669" data-name="Línea 669" x2="13.63" transform="translate(203.338 9.569)" fill="none" stroke="#fff" stroke-linecap="round" stroke-miterlimit="10" stroke-width="3"/>
    <line id="Línea_670" data-name="Línea 670" x2="11.693" transform="translate(203.338 14.498)" fill="none" stroke="#fff" stroke-linecap="round" stroke-miterlimit="10" stroke-width="3"/>
    <line id="Línea_671" data-name="Línea 671" x2="14.87" transform="translate(189.091 19.427)" fill="none" stroke="#fff" stroke-linecap="round" stroke-miterlimit="10" stroke-width="3"/>
    <path id="Trazado_978785" data-name="Trazado 978785" d="M361.412,14.954A6.055,6.055,0,1,1,355.356,8.9a6.055,6.055,0,0,1,6.055,6.055" transform="translate(-161.052 -4.103)" fill="#fff"/>
    <path id="Trazado_978786" data-name="Trazado 978786" d="M357.878,14.651l.96,1.946,2.147.312-1.554,1.515.367,2.138-1.921-1.009-1.921,1.009.367-2.138-1.554-1.515,2.147-.312Z" transform="translate(-163.574 -6.755)" fill="#bfc9ff"/>
    <rect id="Rectángulo_405167" data-name="Rectángulo 405167" width="10.154" height="20.183" transform="translate(295.067 129.781) rotate(-10.62)" fill="#fbaf7b"/>
    <path id="Trazado_978787" data-name="Trazado 978787" d="M519.15,211.974s-8.336-5.48-7.226-12.651c.743-4.8,7.2-2.76,7.2-2.76s-4.613-4.126-2.678-5.867c3.333-3,5.649,3.755,5.649,3.755s-.543-10.53,7.535-10.854c4.99-.2,5.1,8.919,5.1,8.919s8.172-7.349,11.025-.381c2.8,6.839-4.755,17.274-4.755,17.274Z" transform="translate(-235.985 -84.649)" fill="#373b54"/>
    <path id="Trazado_978788" data-name="Trazado 978788" d="M557.621,237.338l1.326,7.075c-2.2,3.228-6.065,6.023-8.872,7.782L547.8,240.063c.185-.338.371-.668.578-.992Z" transform="translate(-252.574 -109.429)" fill="#fb8862"/>
    <path id="Trazado_978789" data-name="Trazado 978789" d="M523.429,211.024S521.6,226.747,532,235.988a2.727,2.727,0,0,0,2.6.579c3.276-.984,11.083-3.813,11.291-8.494.264-5.927-.944-19.707-6.788-20.862s-15.667,3.813-15.667,3.813" transform="translate(-241.28 -95.458)" fill="#fbaf7b"/>
    <path id="Trazado_978790" data-name="Trazado 978790" d="M556.935,226.889s4.485-6.093,8.842-3.534-2.522,11.228-5.716,8.2-3.126-4.666-3.126-4.666" transform="translate(-256.785 -102.693)" fill="#fbaf7b"/>
    <path id="Trazado_978791" data-name="Trazado 978791" d="M522.159,217.816s-.852-4.171,1.712-3.535,4.9,1.527,9.368-4.062c3.4-4.244,8.858,7,8.858,7s.889-3.822,3.276-4.129c0,0-4.6-12.249-9.7-11.5s-15.867,4.792-15.956,7.673,2.443,8.554,2.443,8.554" transform="translate(-239.624 -92.931)" fill="#373b54"/>
    <path id="Trazado_978792" data-name="Trazado 978792" d="M532.283,234.089c.142.756-.033,1.422-.39,1.489s-.762-.491-.9-1.247.033-1.422.39-1.489.762.491.9,1.247" transform="translate(-244.8 -107.354)" fill="#373b54"/>
    <path id="Trazado_978793" data-name="Trazado 978793" d="M547.851,229.332c.142.756-.033,1.422-.39,1.489s-.761-.491-.9-1.247.033-1.422.39-1.489.762.491.9,1.247" transform="translate(-251.978 -105.16)" fill="#373b54"/>
    <path id="Trazado_978794" data-name="Trazado 978794" d="M538.8,245.156c.19-.087,6.545-2.721,6.545-2.721s-.037,9.688-6.355,2.633Z" transform="translate(-248.424 -111.779)" fill="#fff"/>
    <path id="Trazado_978795" data-name="Trazado 978795" d="M576.117,310.911c-9.582,4.931-22.01,9.1-36.34,12.579l.781-22.915,1.358-26a9.347,9.347,0,0,1,3.05-5.75l1.784-1.59.038-.038s1.52,5.54,9.949-1.611l.043.011,6.241,1.417a7.865,7.865,0,0,1,1.4.469,7.494,7.494,0,0,1,2.91,2.344c3.244,4.387,5.826,18.485,7.588,31.463.453,3.347.857,6.613,1.2,9.625" transform="translate(-248.874 -122.452)" fill="#55c0bf"/>
    <path id="Trazado_978796" data-name="Trazado 978796" d="M451.73,237.456l-13.473-8.49a1.017,1.017,0,0,0-1.56.85c-.026,3.175.986,8.278,1.636,9.391.874,1.5,5.227,7.169,5.227,7.169l-3.1.694a1.519,1.519,0,0,0-1.167,1.732,2.619,2.619,0,0,0,2.158,2.155l7.615,1.255Z" transform="translate(-201.347 -105.496)" fill="#fbaf7b"/>
    <path id="Trazado_978797" data-name="Trazado 978797" d="M612.721,299.3a41.9,41.9,0,0,1-11.856,10.116,76.328,76.328,0,0,0-6.063-6.909,71.916,71.916,0,0,0-10.24-8.741l-1.654-25.535c.469.14.938.3,1.4.469,11.231,4.193,21.191,17.8,28.418,30.6" transform="translate(-268.76 -123.673)" fill="#55c0bf"/>
    <path id="Trazado_978798" data-name="Trazado 978798" d="M459.641,259.612l20.318,14.365,25.616,2.036,4.231-18.339-25.082-1.113-22.414-11.705Z" transform="translate(-211.926 -112.896)" fill="#55c0bf"/>
    <path id="Trazado_978799" data-name="Trazado 978799" d="M564.777,231.855s1.561-.514,1.285-1.437a1.9,1.9,0,0,0-1.412-1.13s1.373-3.152,3.361-2.064-.142,4.719-3.234,4.63" transform="translate(-260.343 -104.661)" fill="#fb8862"/>
    <path id="Trazado_978800" data-name="Trazado 978800" d="M584.434,304.957a73.423,73.423,0,0,0,11.071,14.483" transform="translate(-269.464 -140.606)" fill="none" stroke="#469e9d" stroke-linecap="round" stroke-miterlimit="10" stroke-width="3"/>
    <path id="Trazado_978801" data-name="Trazado 978801" d="M581.005,276.574s-3.114,2.108-1.971,8.066" transform="translate(-266.858 -127.52)" fill="none" stroke="#469e9d" stroke-linecap="round" stroke-miterlimit="10" stroke-width="3"/>
    <circle id="Elipse_11552" data-name="Elipse 11552" cx="3.521" cy="3.521" r="3.521" transform="translate(282.57 123.803)" fill="none" stroke="#373b54" stroke-linecap="round" stroke-miterlimit="10" stroke-width="3"/>
    <circle id="Elipse_11553" data-name="Elipse 11553" cx="3.521" cy="3.521" r="3.521" transform="translate(291.705 120.771)" fill="none" stroke="#373b54" stroke-linecap="round" stroke-miterlimit="10" stroke-width="3"/>
    <line id="Línea_672" data-name="Línea 672" y1="0.885" x2="2.55" transform="translate(289.19 124.765)" fill="none" stroke="#373b54" stroke-linecap="round" stroke-miterlimit="10" stroke-width="3"/>
    <path id="Trazado_978802" data-name="Trazado 978802" d="M497.816,345.986c-.717.194-1.444.388-2.177.577l-.183.048c-1.374.361-2.775.711-4.187,1.051a412.867,412.867,0,0,1-42.112,7.647l-14.319-30.8a2.774,2.774,0,0,1-.264-1.046,2.891,2.891,0,0,1,2.732-3.072l44.241-2.377a5.023,5.023,0,0,1,4.845,2.937c2.431,5.346,7.507,16.507,11.425,25.033" transform="translate(-200.365 -146.624)" fill="#fff"/>
    <path id="Trazado_978803" data-name="Trazado 978803" d="M556.923,390.213v.005c-.011-.005-.016-.005-.016-.016s.016.005.016.011" transform="translate(-256.772 -179.91)" fill="#373b54"/>
    <path id="Trazado_978804" data-name="Trazado 978804" d="M495.123,348.115c-1.374.361-2.776.711-4.188,1.051a412.877,412.877,0,0,1-42.112,7.647l-.857.113c-.07.011-.135.016-.2.027l-13.651-29.372a2.82,2.82,0,0,1,2.4-4l42.958-2.307a4.876,4.876,0,0,1,4.7,2.851c2.328,5.125,7.168,15.748,10.951,23.988" transform="translate(-200.033 -148.127)" fill="#373b54"/>
    <path id="Trazado_978805" data-name="Trazado 978805" d="M490.905,354.525c-.924,1.6-3.316,1.946-5.344.775s-2.924-3.416-2-5.015,3.316-1.946,5.345-.775,2.923,3.416,2,5.015" transform="translate(-222.787 -160.828)" fill="#bfc9ff"/>
  </g>
</svg>
